# xmcd
#
# Track frame offsets: 
#        150
#        11599
#        23161
#        34243
#        46746
#        56445
#        66309
#        76958
#        87732
#        97821
#        108411
#        121016
#        129756
#        142932
#        154964
#        168091
#        178358
#        189249
#        200555
#        212457
#
# Disc length: 2993 seconds
#
# Revision: 2
# Processed by: cddbd v1.5.2PL0 Copyright (c) Steve Scherf et al.
# Submitted via: ExactAudioCopy v1.1
#
DISCID=020baf14
DTITLE=Various Artist - Rhythm and Blues Goes Rock 'n' Roll - CD06
DYEAR=2002
DGENRE=Blues
TTITLE0=Jewel King - 3 X 7 =21 (mono)
TTITLE1=Oscar McLollie and Jeanette Baker - Hey Girl, Hey Boy (mono)
TTITLE2=The Gone All Stars - 7 - 11 (mono)
TTITLE3=The Hearts - It's Me (mono)
TTITLE4=H-Bomb Ferguson - Rock, H-Bomb, Rock (mono)
TTITLE5=Bobby and Ron - You're Mine (mono)
TTITLE6=Lula Reed - Sick And Tired (mono)
TTITLE7=Sonny Walker - The Undertaker (mono)
TTITLE8=Jackie Brenston - Much Later (mono)
TTITLE9=Harmon Jones - Lookin' For My Baby (mono)
TTITLE10=The Crawford Brothers - I Ain't Guilty (mono)
TTITLE11=The Table Toppers featuring Little Enis - Talk To Me Baby (mo
TTITLE11=no)
TTITLE12=Mister Ruffin - Bring It On Back (mono)
TTITLE13=Johnnie Littlejohn - Bloody Tears (mono)
TTITLE14=Polka Dot Slim - A Thing You Gotta Face (mono)
TTITLE15=Big Daddy - I Think You're Lying (mono)
TTITLE16=Sherman Evans - Yo Yo Twist (mono)
TTITLE17=Phil Flowers with The T.N.T. Tribble Combo - Twistin' Beat (m
TTITLE17=ono)
TTITLE18=Papa Joe - Looking For My Baby (mono)
TTITLE19=Freddie Clark - Beggin' Papa Blues (mono)
EXTD=
EXTT0=
EXTT1=
EXTT2=
EXTT3=
EXTT4=
EXTT5=
EXTT6=
EXTT7=
EXTT8=
EXTT9=
EXTT10=
EXTT11=
EXTT12=
EXTT13=
EXTT14=
EXTT15=
EXTT16=
EXTT17=
EXTT18=
EXTT19=
PLAYORDER=
